Coordinates
version=1
nRows=17
nColumns=24
inDegrees=yes

Units are S.I. units (second, meters, Newtons, ...)
Angles are in degrees.

endheader
time	pelvis_tilt	pelvis_list	pelvis_rotation	pelvis_tx	pelvis_ty	pelvis_tz	hip_flexion_r	hip_adduction_r	hip_rotation_r	knee_angle_r	ankle_angle_r	subtalar_angle_r	mtp_angle_r	hip_flexion_l	hip_adduction_l	hip_rotation_l	knee_angle_l	ankle_angle_l	subtalar_angle_l	mtp_angle_l	lumbar_extension	lumbar_bending	lumbar_rotation
      3.61000000	     -5.68214912	      0.89853405	      0.13071840	      0.15796770	      0.99075473	     -0.02753316	     14.07274047	    -11.49772848	     -9.80567963	    -56.46855880	     -0.69950519	      0.00000000	      0.00000000	     13.71055679	      0.73574011	     -9.44450189	    -10.49792311	     -0.57257677	      0.00000000	      0.00000000	     -2.50797206	     -0.91902030	      7.62702816
      3.62000000	     -5.69638808	      0.70230901	      0.16238118	      0.15716094	      0.99154295	     -0.02895670	     14.85498692	    -11.30025733	    -10.06769896	    -56.34892387	      0.14825633	      0.00000000	      0.00000000	     13.07638368	      0.64746841	     -9.50847138	    -10.08973190	     -0.41925773	      0.00000000	      0.00000000	     -2.48862148	     -0.68407875	      7.25973096
      3.63000000	     -5.68564164	      0.55007584	      0.22629857	      0.15601995	      0.99225851	     -0.03013715	     15.67947722	    -11.13102413	    -10.31806510	    -56.17878041	      0.59070554	      0.00000000	      0.00000000	     12.48822689	      0.57660164	     -9.68090065	     -9.77973398	     -0.26453717	      0.00000000	      0.00000000	     -2.55609842	     -0.53873488	      6.86116811
      3.64000000	     -5.73884937	      0.34157496	      0.24549270	      0.15511336	      0.99289937	     -0.03132279	     16.42639316	    -10.86518455	    -10.56802677	    -55.64798877	      1.52797089	      0.00000000	      0.00000000	     11.84049455	      0.45914970	     -9.69859788	     -9.22677900	     -0.22034088	      0.00000000	      0.00000000	     -2.50458787	     -0.30853907	      6.56423709
      3.65000000	     -5.77924268	      0.22057716	      0.28304136	      0.15407913	      0.99346192	     -0.03249438	     17.18493385	    -10.71193224	    -10.82687895	    -55.01866093	      1.95370334	      0.00000000	      0.00000000	     11.25160754	      0.43031767	     -9.88128291	     -8.81529032	     -0.06566915	      0.00000000	      0.00000000	     -2.48353198	     -0.17340834	      6.23100183
      3.66000000	     -5.82741303	      0.05540618	      0.29021551	      0.15296210	      0.99394109	     -0.03352885	     17.92527739	    -10.48511306	    -11.05852302	    -54.23726973	      2.50377223	      0.00000000	      0.00000000	     10.62486288	      0.34583439	     -9.94356374	     -8.29728187	     -0.03574863	      0.00000000	      0.00000000	     -2.47326416	      0.01911523	      5.96483087
      3.67000000	     -5.86134278	     -0.07049095	      0.30089220	      0.15177552	      0.99437008	     -0.03450398	     18.60895598	    -10.28942162	    -11.26037688	    -53.27788179	      2.87221668	      0.00000000	      0.00000000	     10.01427977	      0.29825197	    -10.03129168	     -7.82781468	     -0.01907741	      0.00000000	      0.00000000	     -2.49027841	      0.16683867	      5.68688093
      3.68000000	     -5.91622410	     -0.12156554	      0.29326709	      0.15053200	      0.99467475	     -0.03543069	     19.30035495	    -10.18481103	    -11.45147906	    -52.17954139	      3.08542958	      0.00000000	      0.00000000	      9.47628905	      0.32409959	    -10.15135867	     -7.48215377	      0.10102070	      0.00000000	      0.00000000	     -2.48311220	      0.23551726	      5.42912383
      3.69000000	     -5.98482466	     -0.13319225	      0.27036983	      0.14921128	      0.99489896	     -0.03627116	     19.97908726	    -10.10730708	    -11.60178931	    -50.95165542	      3.24999548	      0.00000000	      0.00000000	      8.98802309	      0.38077974	    -10.23797053	     -7.20703247	      0.22427054	      0.00000000	      0.00000000	     -2.48303131	      0.26187584	      5.19307030
      3.70000000	     -6.05106677	     -0.37454073	      0.26634227	      0.14806762	      0.99510663	     -0.03700926	     20.54480027	     -9.79714742	    -11.91091967	    -49.52770483	      3.42139808	      0.00000000	      0.00000000	      8.29267987	      0.21382539	    -10.19428743	     -6.46631526	      0.15457304	      0.00000000	      0.00000000	     -2.45923974	      0.56100006	      4.95165245
      3.71000000	     -6.11802774	     -0.32357143	      0.22915007	      0.14661731	      0.99516335	     -0.03766875	     21.15845731	     -9.78655120	    -12.05001111	    -48.05209550	      3.49076396	      0.00000000	      0.00000000	      7.84892692	      0.32353680	    -10.26801631	     -6.27516487	      0.30088716	      0.00000000	      0.00000000	     -2.47824831	      0.52155083	      4.73489104
      3.72000000	     -6.21393810	     -0.46052709	      0.22600212	      0.14536970	      0.99521180	     -0.03827991	     21.67592234	     -9.59170738	    -12.38027502	    -46.35442689	      3.46315349	      0.00000000	      0.00000000	      7.26662821	      0.26218916	    -10.24333337	     -5.70695378	      0.40122455	      0.00000000	      0.00000000	     -2.43340775	      0.70563412	      4.47954668
      3.73000000	     -6.23372686	     -0.60486013	      0.24155975	      0.14407496	      0.99533431	     -0.03868747	     22.03398388	     -9.36413331	    -12.69539480	    -44.46479195	      3.34336305	      0.00000000	      0.00000000	      6.68633043	      0.15461890	    -10.11986980	     -5.32428288	      0.41832649	      0.00000000	      0.00000000	     -2.48471668	      0.87406267	      4.21340524
      3.74000000	     -6.34364238	     -0.48213328	      0.16295627	      0.14252427	      0.99514778	     -0.03908615	     22.58708363	     -9.40625062	    -12.84360554	    -42.65419117	      3.40320997	      0.00000000	      0.00000000	      6.31585113	      0.33150822	    -10.15136879	     -5.18249178	      0.60927534	      0.00000000	      0.00000000	     -2.47092597	      0.76922545	      4.04519848
      3.75000000	     -6.42350239	     -0.75530676	      0.24685822	      0.14128859	      0.99514937	     -0.03935304	     22.84000139	     -9.04244201	    -13.33738704	    -40.41968065	      3.07111500	      0.00000000	      0.00000000	      5.77138991	      0.08880144	     -9.94836549	     -4.71963104	      0.68260964	      0.00000000	      0.00000000	     -2.43928880	      1.08832995	      3.69234760
      3.76000000	     -6.50480971	     -0.86130703	      0.27042420	      0.13988077	      0.99505545	     -0.03956502	     23.12296621	     -8.83505096	    -13.73895398	    -38.16318126	      2.83088280	      0.00000000	      0.00000000	      5.32049000	      0.01488151	     -9.83848098	     -4.45745328	      0.85774340	      0.00000000	      0.00000000	     -2.43723064	      1.23638936	      3.42439080
      3.77000000	     -6.64438013	     -0.97958887	      0.30114586	      0.13843158	      0.99485432	     -0.03956458	     23.41876868	     -8.58405991	    -14.15932096	    -35.77536450	      2.48057543	      0.00000000	      0.00000000	      4.93673559	     -0.09009906	     -9.73549056	     -4.18639727	      1.01981386	      0.00000000	      0.00000000	     -2.37489755	      1.37433126	      3.15847658
